<svg width="372" height="723" viewBox="0 0 372 723" fill="none" xmlns="http://www.w3.org/2000/svg">
<path d="M0 17C0 7.61115 7.61116 0 17 0H355C364.389 0 372 7.61116 372 17V682.467C372 698.858 351.09 705.756 341.337 692.583L339.163 689.646C332.367 680.467 318.633 680.467 311.837 689.646L292.663 715.545C285.867 724.724 272.133 724.724 265.337 715.545L246.163 689.646C239.367 680.467 225.633 680.467 218.837 689.646L199.663 715.545C192.867 724.724 179.133 724.724 172.337 715.545L153.163 689.646C146.367 680.467 132.633 680.467 125.837 689.646L106.663 715.545C99.8671 724.724 86.1329 724.724 79.3369 715.545L60.1631 689.646C53.3671 680.467 39.6329 680.467 32.8369 689.646L30.6631 692.583C20.9103 705.756 0 698.858 0 682.467V17Z" fill="#FFECEC"/>
</svg>
