<svg width="34" height="34" viewBox="0 0 34 34" fill="none" xmlns="http://www.w3.org/2000/svg">
<path d="M24.5 12.4833C21.725 12.2083 18.9333 12.0667 16.15 12.0667C14.5 12.0667 12.85 12.15 11.2 12.3167L9.5 12.4833" stroke="#292D32" stroke-width="1.5" stroke-linecap="round" stroke-linejoin="round"/>
<path d="M14.083 11.6416L14.2663 10.55C14.3997 9.75829 14.4997 9.16663 15.908 9.16663H18.0913C19.4997 9.16663 19.608 9.79163 19.733 10.5583L19.9163 11.6416" stroke="#292D32" stroke-width="1.5" stroke-linecap="round" stroke-linejoin="round"/>
<path d="M22.7087 15.1165L22.167 23.5081C22.0753 24.8165 22.0003 25.8331 19.6753 25.8331H14.3253C12.0003 25.8331 11.9253 24.8165 11.8337 23.5081L11.292 15.1165" stroke="#292D32" stroke-width="1.5" stroke-linecap="round" stroke-linejoin="round"/>
<path d="M15.6084 21.25H18.3834" stroke="#292D32" stroke-width="1.5" stroke-linecap="round" stroke-linejoin="round"/>
<path d="M14.917 17.9166H19.0837" stroke="#292D32" stroke-width="1.5" stroke-linecap="round" stroke-linejoin="round"/>
</svg>
