<svg width="26" height="25" viewBox="0 0 26 25" fill="none" xmlns="http://www.w3.org/2000/svg">
<path d="M19.2276 6.35C20.0425 7.21272 20.5 8.38078 20.5 9.59844C20.5 10.8161 20.0425 11.9842 19.2276 12.8469L12.4979 20L5.76812 12.8469C5.16292 12.2044 4.75089 11.3879 4.58361 10.4996C4.41633 9.61132 4.50123 8.69075 4.82768 7.85312C5.15414 7.01549 5.70763 6.29801 6.41889 5.79051C7.13014 5.28301 7.96755 5.00803 8.82629 5C9.97457 5.00735 11.0736 5.49253 11.8845 6.35C12.1209 6.59677 12.327 6.87395 12.4979 7.175C12.6687 6.87395 12.8748 6.59677 13.1113 6.35C13.5108 5.92255 13.9869 5.58312 14.5119 5.35144C15.0369 5.11975 15.6003 5.00044 16.1695 5.00044C16.7386 5.00044 17.302 5.11975 17.827 5.35144C18.352 5.58312 18.8281 5.92255 19.2276 6.35Z" fill="#AAAAAA" stroke="#AAAAAA" stroke-width="1.5" stroke-linecap="round" stroke-linejoin="round"/>
</svg>
