<svg width="27" height="27" viewBox="0 0 27 27" fill="none" xmlns="http://www.w3.org/2000/svg">
<path d="M7.99404 2.20898H5.89612C3.478 2.20898 2.20821 3.47878 2.20821 5.88586V7.98378C2.20821 10.3909 3.478 11.6607 5.88508 11.6607H7.983C10.3901 11.6607 11.6599 10.3909 11.6599 7.98378V5.88586C11.6709 3.47878 10.4011 2.20898 7.99404 2.20898Z" fill="white"/>
<path d="M20.6151 2.20898H18.5172C16.1101 2.20898 14.8403 3.47878 14.8403 5.88586V7.98378C14.8403 10.3909 16.1101 11.6607 18.5172 11.6607H20.6151C23.0222 11.6607 24.292 10.3909 24.292 7.98378V5.88586C24.292 3.47878 23.0222 2.20898 20.6151 2.20898Z" fill="white"/>
<path d="M20.6151 14.8292H18.5172C16.1101 14.8292 14.8403 16.099 14.8403 18.5061V20.604C14.8403 23.0111 16.1101 24.2809 18.5172 24.2809H20.6151C23.0222 24.2809 24.292 23.0111 24.292 20.604V18.5061C24.292 16.099 23.0222 14.8292 20.6151 14.8292Z" fill="white"/>
<path d="M7.99404 14.8292H5.89612C3.478 14.8292 2.20821 16.099 2.20821 18.5061V20.604C2.20821 23.0221 3.478 24.2919 5.88508 24.2919H7.983C10.3901 24.2919 11.6599 23.0221 11.6599 20.6151V18.5171C11.6709 16.099 10.4011 14.8292 7.99404 14.8292Z" fill="white"/>
</svg>
