<svg width="25" height="25" viewBox="0 0 25 25" fill="none" xmlns="http://www.w3.org/2000/svg">
<path d="M8.26465 18.6475C9.19048 18.6475 9.94141 19.3984 9.94141 20.3242C9.94115 21.2498 9.19032 21.9999 8.26465 22C7.33892 22 6.58815 21.2499 6.58789 20.3242C6.58789 19.3983 7.33876 18.6475 8.26465 18.6475ZM18.3232 18.6475C19.249 18.6476 19.999 19.3984 19.999 20.3242C19.9989 21.2499 19.2489 21.9998 18.3232 22C17.3974 22 16.6466 21.25 16.6465 20.3242C16.6465 19.3983 17.3974 18.6475 18.3232 18.6475ZM3.16699 3C3.79012 2.99939 4.39556 3.20735 4.88672 3.59082C5.37796 3.97436 5.72644 4.51143 5.87695 5.11621L5.90723 5.23535H20.1953C20.4548 5.23444 20.7111 5.29443 20.9434 5.41016C21.1757 5.52595 21.3776 5.69451 21.5332 5.90235C21.6902 6.109 21.7972 6.34933 21.8447 6.60449C21.8922 6.85971 21.8789 7.12273 21.8066 7.37207L20.4424 12.1504C20.2735 12.7331 19.92 13.2461 19.4355 13.6113C18.9512 13.9764 18.3614 14.1748 17.7549 14.1768H8.1416L8.38281 15.1426C8.47328 15.5054 8.68277 15.8276 8.97754 16.0576C9.27232 16.2876 9.63587 16.4125 10.0098 16.4121H18.3232C18.4714 16.4121 18.614 16.4705 18.7188 16.5752C18.8235 16.68 18.8828 16.8225 18.8828 16.9707C18.8828 17.1189 18.8235 17.2614 18.7188 17.3662C18.614 17.4709 18.4714 17.5293 18.3232 17.5293H10.0098C9.38659 17.53 8.78126 17.3219 8.29004 16.9385C7.79875 16.5549 7.44932 16.0179 7.29883 15.4131L4.79297 5.38672C4.70246 5.02401 4.49297 4.70166 4.19824 4.47168C3.90361 4.24193 3.54062 4.11683 3.16699 4.11719H1.55859C1.41059 4.11713 1.26878 4.05869 1.16406 3.9541C1.05926 3.8493 1 3.7068 1 3.5586C1.00006 3.41047 1.05932 3.26881 1.16406 3.16406C1.26881 3.05932 1.41047 3.00006 1.55859 3H3.16699Z" fill="#AAAAAA"/>
</svg>
